<mxfile host="app.diagrams.net" agent="Mozilla/5.0 (Windows NT 10.0; Win64; x64) AppleWebKit/537.36 (KHTML, like Gecko) Chrome/131.0.0.0 Safari/537.36 Edg/131.0.0.0" version="25.0.3">
  <diagram name="Strona-1" id="H10BQ8OQqT3FDFBxlMCn">
    <mxGraphModel dx="983" dy="569" grid="1" gridSize="10" guides="1" tooltips="1" connect="1" arrows="1" fold="1" page="1" pageScale="1" pageWidth="827" pageHeight="1169" math="0" shadow="0">
      <root>
        <mxCell id="0" />
        <mxCell id="1" parent="0" />
        <mxCell id="MuHe902Tk9D_ubui124Q-14" style="edgeStyle=orthogonalEdgeStyle;rounded=0;orthogonalLoop=1;jettySize=auto;html=1;exitX=0.5;exitY=0.5;exitDx=0;exitDy=0;exitPerimeter=0;entryX=0;entryY=0.5;entryDx=0;entryDy=0;" edge="1" parent="1" source="MuHe902Tk9D_ubui124Q-1" target="MuHe902Tk9D_ubui124Q-10">
          <mxGeometry relative="1" as="geometry" />
        </mxCell>
        <mxCell id="MuHe902Tk9D_ubui124Q-15" style="edgeStyle=orthogonalEdgeStyle;rounded=0;orthogonalLoop=1;jettySize=auto;html=1;exitX=0.5;exitY=0.5;exitDx=0;exitDy=0;exitPerimeter=0;entryX=0;entryY=0.5;entryDx=0;entryDy=0;" edge="1" parent="1" source="MuHe902Tk9D_ubui124Q-1" target="MuHe902Tk9D_ubui124Q-9">
          <mxGeometry relative="1" as="geometry" />
        </mxCell>
        <mxCell id="MuHe902Tk9D_ubui124Q-27" style="edgeStyle=orthogonalEdgeStyle;rounded=0;orthogonalLoop=1;jettySize=auto;html=1;exitX=0.5;exitY=0.5;exitDx=0;exitDy=0;exitPerimeter=0;entryX=0;entryY=0.5;entryDx=0;entryDy=0;" edge="1" parent="1" source="MuHe902Tk9D_ubui124Q-1" target="MuHe902Tk9D_ubui124Q-23">
          <mxGeometry relative="1" as="geometry">
            <Array as="points">
              <mxPoint x="65" y="250" />
              <mxPoint x="210" y="250" />
              <mxPoint x="210" y="230" />
            </Array>
          </mxGeometry>
        </mxCell>
        <mxCell id="MuHe902Tk9D_ubui124Q-1" value="Klient" style="shape=umlActor;verticalLabelPosition=bottom;verticalAlign=top;html=1;outlineConnect=0;" vertex="1" parent="1">
          <mxGeometry x="50" y="240" width="30" height="60" as="geometry" />
        </mxCell>
        <mxCell id="MuHe902Tk9D_ubui124Q-19" style="edgeStyle=orthogonalEdgeStyle;rounded=0;orthogonalLoop=1;jettySize=auto;html=1;exitX=0.5;exitY=0.5;exitDx=0;exitDy=0;exitPerimeter=0;entryX=1;entryY=0.5;entryDx=0;entryDy=0;" edge="1" parent="1" source="MuHe902Tk9D_ubui124Q-2" target="MuHe902Tk9D_ubui124Q-13">
          <mxGeometry relative="1" as="geometry" />
        </mxCell>
        <mxCell id="MuHe902Tk9D_ubui124Q-20" style="edgeStyle=orthogonalEdgeStyle;rounded=0;orthogonalLoop=1;jettySize=auto;html=1;exitX=0.5;exitY=0.5;exitDx=0;exitDy=0;exitPerimeter=0;entryX=1;entryY=0.5;entryDx=0;entryDy=0;" edge="1" parent="1" source="MuHe902Tk9D_ubui124Q-2" target="MuHe902Tk9D_ubui124Q-12">
          <mxGeometry relative="1" as="geometry" />
        </mxCell>
        <mxCell id="MuHe902Tk9D_ubui124Q-21" style="edgeStyle=orthogonalEdgeStyle;rounded=0;orthogonalLoop=1;jettySize=auto;html=1;exitX=0.5;exitY=0.5;exitDx=0;exitDy=0;exitPerimeter=0;entryX=1;entryY=0.5;entryDx=0;entryDy=0;" edge="1" parent="1" source="MuHe902Tk9D_ubui124Q-2" target="MuHe902Tk9D_ubui124Q-11">
          <mxGeometry relative="1" as="geometry" />
        </mxCell>
        <mxCell id="MuHe902Tk9D_ubui124Q-24" style="edgeStyle=orthogonalEdgeStyle;rounded=0;orthogonalLoop=1;jettySize=auto;html=1;exitX=0.5;exitY=0.5;exitDx=0;exitDy=0;exitPerimeter=0;entryX=1;entryY=0.5;entryDx=0;entryDy=0;" edge="1" parent="1" source="MuHe902Tk9D_ubui124Q-2" target="MuHe902Tk9D_ubui124Q-22">
          <mxGeometry relative="1" as="geometry">
            <Array as="points">
              <mxPoint x="670" y="270" />
            </Array>
          </mxGeometry>
        </mxCell>
        <mxCell id="MuHe902Tk9D_ubui124Q-28" style="edgeStyle=orthogonalEdgeStyle;rounded=0;orthogonalLoop=1;jettySize=auto;html=1;exitX=0.5;exitY=0.5;exitDx=0;exitDy=0;exitPerimeter=0;" edge="1" parent="1" source="MuHe902Tk9D_ubui124Q-2" target="MuHe902Tk9D_ubui124Q-23">
          <mxGeometry relative="1" as="geometry" />
        </mxCell>
        <mxCell id="MuHe902Tk9D_ubui124Q-31" style="edgeStyle=orthogonalEdgeStyle;rounded=0;orthogonalLoop=1;jettySize=auto;html=1;exitX=0.5;exitY=0.5;exitDx=0;exitDy=0;exitPerimeter=0;entryX=1;entryY=1;entryDx=0;entryDy=0;" edge="1" parent="1" source="MuHe902Tk9D_ubui124Q-2" target="MuHe902Tk9D_ubui124Q-25">
          <mxGeometry relative="1" as="geometry">
            <Array as="points">
              <mxPoint x="735" y="200" />
              <mxPoint x="500" y="200" />
              <mxPoint x="500" y="138" />
            </Array>
          </mxGeometry>
        </mxCell>
        <mxCell id="MuHe902Tk9D_ubui124Q-2" value="System" style="shape=umlActor;verticalLabelPosition=bottom;verticalAlign=top;html=1;outlineConnect=0;" vertex="1" parent="1">
          <mxGeometry x="720" y="240" width="30" height="60" as="geometry" />
        </mxCell>
        <mxCell id="MuHe902Tk9D_ubui124Q-6" value="" style="rounded=0;whiteSpace=wrap;html=1;fillColor=none;" vertex="1" parent="1">
          <mxGeometry x="120" y="40" width="570" height="570" as="geometry" />
        </mxCell>
        <mxCell id="MuHe902Tk9D_ubui124Q-30" style="edgeStyle=orthogonalEdgeStyle;rounded=0;orthogonalLoop=1;jettySize=auto;html=1;exitX=1;exitY=0.5;exitDx=0;exitDy=0;" edge="1" parent="1" source="MuHe902Tk9D_ubui124Q-9" target="MuHe902Tk9D_ubui124Q-25">
          <mxGeometry relative="1" as="geometry" />
        </mxCell>
        <mxCell id="MuHe902Tk9D_ubui124Q-9" value="Wprowadzanie Paczek" style="ellipse;whiteSpace=wrap;html=1;" vertex="1" parent="1">
          <mxGeometry x="180" y="120" width="120" height="80" as="geometry" />
        </mxCell>
        <mxCell id="MuHe902Tk9D_ubui124Q-16" style="edgeStyle=orthogonalEdgeStyle;rounded=0;orthogonalLoop=1;jettySize=auto;html=1;exitX=0.5;exitY=1;exitDx=0;exitDy=0;entryX=0;entryY=0.5;entryDx=0;entryDy=0;" edge="1" parent="1" source="MuHe902Tk9D_ubui124Q-10" target="MuHe902Tk9D_ubui124Q-13">
          <mxGeometry relative="1" as="geometry" />
        </mxCell>
        <mxCell id="MuHe902Tk9D_ubui124Q-17" style="edgeStyle=orthogonalEdgeStyle;rounded=0;orthogonalLoop=1;jettySize=auto;html=1;exitX=0.5;exitY=1;exitDx=0;exitDy=0;entryX=0;entryY=0.5;entryDx=0;entryDy=0;" edge="1" parent="1" source="MuHe902Tk9D_ubui124Q-10" target="MuHe902Tk9D_ubui124Q-12">
          <mxGeometry relative="1" as="geometry" />
        </mxCell>
        <mxCell id="MuHe902Tk9D_ubui124Q-18" style="edgeStyle=orthogonalEdgeStyle;rounded=0;orthogonalLoop=1;jettySize=auto;html=1;exitX=0.5;exitY=1;exitDx=0;exitDy=0;entryX=0;entryY=0.5;entryDx=0;entryDy=0;" edge="1" parent="1" source="MuHe902Tk9D_ubui124Q-10" target="MuHe902Tk9D_ubui124Q-11">
          <mxGeometry relative="1" as="geometry" />
        </mxCell>
        <mxCell id="MuHe902Tk9D_ubui124Q-10" value="Wybór Algorytmu" style="ellipse;whiteSpace=wrap;html=1;" vertex="1" parent="1">
          <mxGeometry x="180" y="260" width="120" height="80" as="geometry" />
        </mxCell>
        <mxCell id="MuHe902Tk9D_ubui124Q-11" value="Algorytm Genetyczny" style="ellipse;whiteSpace=wrap;html=1;" vertex="1" parent="1">
          <mxGeometry x="320" y="520" width="120" height="80" as="geometry" />
        </mxCell>
        <mxCell id="MuHe902Tk9D_ubui124Q-12" value="Algorytm Zachłanny" style="ellipse;whiteSpace=wrap;html=1;" vertex="1" parent="1">
          <mxGeometry x="320" y="430" width="120" height="80" as="geometry" />
        </mxCell>
        <mxCell id="MuHe902Tk9D_ubui124Q-13" value="Algorytm Wyżarzania" style="ellipse;whiteSpace=wrap;html=1;" vertex="1" parent="1">
          <mxGeometry x="320" y="340" width="120" height="80" as="geometry" />
        </mxCell>
        <mxCell id="MuHe902Tk9D_ubui124Q-22" value="Obsługa interfejsu graficznego" style="ellipse;whiteSpace=wrap;html=1;" vertex="1" parent="1">
          <mxGeometry x="480" y="60" width="170" height="90" as="geometry" />
        </mxCell>
        <mxCell id="MuHe902Tk9D_ubui124Q-23" value="Wyświetlanie aktualnej optymalnej trasy" style="ellipse;whiteSpace=wrap;html=1;" vertex="1" parent="1">
          <mxGeometry x="340" y="190" width="120" height="80" as="geometry" />
        </mxCell>
        <mxCell id="MuHe902Tk9D_ubui124Q-25" value="Zapisywanie danych Paczek" style="ellipse;whiteSpace=wrap;html=1;" vertex="1" parent="1">
          <mxGeometry x="330" y="70" width="120" height="80" as="geometry" />
        </mxCell>
        <mxCell id="MuHe902Tk9D_ubui124Q-33" value="1..n" style="text;html=1;align=center;verticalAlign=middle;whiteSpace=wrap;rounded=0;" vertex="1" parent="1">
          <mxGeometry x="130" y="130" width="60" height="30" as="geometry" />
        </mxCell>
        <mxCell id="MuHe902Tk9D_ubui124Q-34" value="1..n" style="text;html=1;align=center;verticalAlign=middle;whiteSpace=wrap;rounded=0;" vertex="1" parent="1">
          <mxGeometry x="130" y="300" width="60" height="30" as="geometry" />
        </mxCell>
        <mxCell id="MuHe902Tk9D_ubui124Q-37" value="1..1" style="text;html=1;align=center;verticalAlign=middle;whiteSpace=wrap;rounded=0;" vertex="1" parent="1">
          <mxGeometry x="280" y="200" width="60" height="30" as="geometry" />
        </mxCell>
        <mxCell id="MuHe902Tk9D_ubui124Q-38" value="1..1" style="text;html=1;align=center;verticalAlign=middle;whiteSpace=wrap;rounded=0;" vertex="1" parent="1">
          <mxGeometry x="260" y="350" width="60" height="30" as="geometry" />
        </mxCell>
        <mxCell id="MuHe902Tk9D_ubui124Q-40" value="1..1" style="text;html=1;align=center;verticalAlign=middle;whiteSpace=wrap;rounded=0;" vertex="1" parent="1">
          <mxGeometry x="260" y="440" width="60" height="30" as="geometry" />
        </mxCell>
        <mxCell id="MuHe902Tk9D_ubui124Q-41" value="1..1" style="text;html=1;align=center;verticalAlign=middle;whiteSpace=wrap;rounded=0;" vertex="1" parent="1">
          <mxGeometry x="250" y="530" width="60" height="30" as="geometry" />
        </mxCell>
        <mxCell id="MuHe902Tk9D_ubui124Q-42" value="1..n" style="text;html=1;align=center;verticalAlign=middle;whiteSpace=wrap;rounded=0;" vertex="1" parent="1">
          <mxGeometry x="620" y="145" width="60" height="30" as="geometry" />
        </mxCell>
        <mxCell id="MuHe902Tk9D_ubui124Q-43" value="1..n" style="text;html=1;align=center;verticalAlign=middle;whiteSpace=wrap;rounded=0;" vertex="1" parent="1">
          <mxGeometry x="490" y="175" width="60" height="30" as="geometry" />
        </mxCell>
        <mxCell id="MuHe902Tk9D_ubui124Q-44" value="1..1" style="text;html=1;align=center;verticalAlign=middle;whiteSpace=wrap;rounded=0;" vertex="1" parent="1">
          <mxGeometry x="310" y="150" width="60" height="30" as="geometry" />
        </mxCell>
        <mxCell id="MuHe902Tk9D_ubui124Q-45" value="1..1" style="text;html=1;align=center;verticalAlign=middle;whiteSpace=wrap;rounded=0;" vertex="1" parent="1">
          <mxGeometry x="480" y="230" width="60" height="30" as="geometry" />
        </mxCell>
        <mxCell id="MuHe902Tk9D_ubui124Q-46" value="1..1" style="text;html=1;align=center;verticalAlign=middle;whiteSpace=wrap;rounded=0;" vertex="1" parent="1">
          <mxGeometry x="470" y="350" width="60" height="30" as="geometry" />
        </mxCell>
        <mxCell id="MuHe902Tk9D_ubui124Q-47" value="1..1" style="text;html=1;align=center;verticalAlign=middle;whiteSpace=wrap;rounded=0;" vertex="1" parent="1">
          <mxGeometry x="460" y="440" width="60" height="30" as="geometry" />
        </mxCell>
        <mxCell id="MuHe902Tk9D_ubui124Q-48" value="1..1" style="text;html=1;align=center;verticalAlign=middle;whiteSpace=wrap;rounded=0;" vertex="1" parent="1">
          <mxGeometry x="470" y="530" width="60" height="30" as="geometry" />
        </mxCell>
        <mxCell id="MuHe902Tk9D_ubui124Q-49" value="Aplikacja" style="text;html=1;align=center;verticalAlign=middle;whiteSpace=wrap;rounded=0;" vertex="1" parent="1">
          <mxGeometry x="120" y="40" width="60" height="30" as="geometry" />
        </mxCell>
      </root>
    </mxGraphModel>
  </diagram>
</mxfile>
